<svg width="113" height="23" viewBox="0 0 113 23" fill="none" xmlns="http://www.w3.org/2000/svg">
<path d="M11 1.5C11 1.5 8.25736 4.85212 6.5 7C4.74264 9.14788 2 12.5 2 12.5H11L2 22.5M15.5 22.5L20.25 12M31.5 22.5L28.25 12M20.25 12L25 1.5L28.25 12M20.25 12H28.25M43 1.5L35.5 12H43L35.5 22.5M50.5 1.5L50.25 12M50 22.5L50.25 12M59 1.5V12M59 22.5V12M50.25 12H59M63.5 22.5L67.75 12M79 22.5L75.5 12M67.75 12L72 1.5L75.5 12M67.75 12H75.5M85 22.5V1.5L93.5 22.5V1.5M100 1.5V12M100 22.5V12M100 12L112 1.5M100 12L112 22.5" stroke="#1F2833"/>
</svg>
