<svg width="394" height="298" viewBox="0 0 394 298" fill="none" xmlns="http://www.w3.org/2000/svg">
<g id="undraw_working_from_anywhere_ub67 1" clip-path="url(#clip0)">
<path id="Vector" d="M31.631 82.3317C49.1004 82.3317 63.2621 69.8678 63.2621 54.4929C63.2621 39.118 49.1004 26.6542 31.631 26.6542C14.1617 26.6542 0 39.118 0 54.4929C0 69.8678 14.1617 82.3317 31.631 82.3317Z" fill="#FF6584"/>
<path id="Vector_2" d="M366.974 233.594C366.83 238.332 365.928 243.03 364.295 247.547C364.258 247.652 364.219 247.755 364.18 247.86H354.182C354.192 247.766 354.203 247.661 354.214 247.547C354.88 240.802 358.724 199.75 354.128 192.729C354.53 193.299 367.749 212.162 366.974 233.594Z" fill="#C4C4C4"/>
<path id="Vector_3" d="M366.224 247.547C366.14 247.652 366.053 247.757 365.964 247.86H358.464C358.521 247.771 358.587 247.666 358.663 247.547C359.902 245.579 363.57 239.694 366.974 233.594C370.633 227.038 373.989 220.233 373.707 217.771C373.794 218.326 376.325 235.258 366.224 247.547Z" fill="#C4C4C4"/>
<path id="Vector_4" d="M394 247.26H106.503V248.088H394V247.26Z" fill="#E6E6E6"/>
<path id="Vector_5" d="M290.528 273.106L291.925 262.965L331.379 254.054L326.84 242.07C330.001 234.088 335.552 230.176 345.694 234.08L363.138 243.618C364.834 244.545 366.215 245.856 367.137 247.413C368.06 248.971 368.49 250.718 368.382 252.472C368.275 254.233 367.63 255.936 366.515 257.401C365.4 258.866 363.856 260.039 362.046 260.796C342.517 268.943 317.627 272.061 290.528 273.106Z" fill="#FFB8B8"/>
<path id="Vector_6" d="M292.972 276.179L280.752 274.642L269.322 276.695C268.622 276.821 267.899 276.812 267.203 276.667C266.507 276.523 265.856 276.248 265.293 275.86C264.73 275.473 264.269 274.982 263.943 274.422C263.617 273.863 263.432 273.248 263.402 272.619C263.369 271.916 263.53 271.217 263.872 270.581C264.214 269.945 264.726 269.391 265.364 268.968L283.275 257.091C284.811 256.073 286.709 255.57 288.629 255.672C290.549 255.774 292.364 256.475 293.749 257.649L298.209 261.429C295.018 263.172 292.645 265.786 291.226 269.419C294.294 270.903 294.876 273.156 292.972 276.179Z" fill="#2F2E41"/>
<path id="Vector_7" d="M304.644 169.715C310.885 169.715 315.945 165.261 315.945 159.768C315.945 154.275 310.885 149.822 304.644 149.822C298.402 149.822 293.342 154.275 293.342 159.768C293.342 165.261 298.402 169.715 304.644 169.715Z" fill="#FFB8B8"/>
<path id="Vector_8" d="M322.301 179.383L296.987 188.755C299.045 179.664 300.07 171.382 296.987 166.323L313.223 164.633C312.417 168.521 316.525 173.728 322.301 179.383Z" fill="#FFB8B8"/>
<path id="Vector_9" d="M279.355 272.799L269.928 272.184C264.153 250.989 261.196 230.955 262.487 212.672C262.669 210.003 264.019 207.499 266.254 205.687C268.488 203.875 271.433 202.896 274.47 202.953C277.389 203.012 280.178 204.025 282.293 205.797L294.484 216.007C299.92 220.525 304.14 226.055 306.836 232.193C310.288 240.151 309.049 244.613 300.807 243.855C295.656 243.35 290.919 241.134 287.563 237.659L278.657 228.549L279.355 272.799Z" fill="#FFB8B8"/>
<path id="Vector_10" d="M272.055 297.985C270.819 297.914 269.619 297.594 268.547 297.049C267.474 296.504 266.559 295.749 265.872 294.842C265.184 293.936 264.743 292.902 264.583 291.822C264.422 290.741 264.547 289.643 264.946 288.611L266.786 283.861L268.183 271.877C270.334 268.013 273.381 268.591 276.911 271.57C279.156 271.376 279.638 269.4 279.355 266.653L286.433 275.039C287.039 275.756 287.415 276.604 287.522 277.493C287.629 278.382 287.464 279.28 287.042 280.094L279.919 293.846C279.24 295.157 278.124 296.254 276.719 296.994C275.315 297.733 273.688 298.079 272.055 297.985Z" fill="black"/>
<path id="Vector_11" d="M361.231 242.531C348.312 248.984 344.264 249.171 331.379 253.747L320.206 248.216C307.084 252.486 297.88 246.632 287.909 237.921C294.434 228.357 291.548 215.928 295.591 216.104L343.948 229.471L346.043 234.08L361.231 242.531Z" fill="black"/>
<path id="Vector_12" d="M345.694 232.544C328.619 239.048 310.235 232.162 294.543 217.026L284.153 180.095C284.03 179.688 284.004 179.263 284.074 178.847C284.145 178.431 284.312 178.032 284.565 177.674C284.818 177.317 285.151 177.009 285.544 176.769C285.937 176.53 286.382 176.364 286.851 176.281L298.908 174.159L304.843 182.456L316.714 173.237L329.321 176.864C330.998 177.347 332.493 178.221 333.649 179.393C334.805 180.565 335.577 181.992 335.883 183.521L345.694 232.544Z" fill="#FF6584"/>
<path id="Vector_13" opacity="0.2" d="M318.573 263.852C317.652 263.543 316.828 263.044 316.171 262.397C315.514 261.75 315.042 260.973 314.797 260.133C314.551 259.292 314.538 258.412 314.759 257.567C314.979 256.721 315.427 255.934 316.065 255.272L324.047 246.986L329.633 249.752L326.756 260.074C326.548 260.821 326.162 261.52 325.623 262.126C325.085 262.731 324.406 263.229 323.632 263.586C322.859 263.944 322.007 264.152 321.135 264.198C320.263 264.244 319.39 264.126 318.573 263.852Z" fill="black"/>
<path id="Vector_14" d="M318.573 262.623C317.652 262.314 316.828 261.815 316.171 261.168C315.514 260.521 315.042 259.744 314.797 258.904C314.551 258.063 314.538 257.183 314.759 256.337C314.979 255.491 315.427 254.705 316.065 254.043L324.047 245.757L329.633 248.523L326.756 258.844C326.548 259.591 326.162 260.291 325.623 260.896C325.085 261.502 324.406 262 323.632 262.357C322.859 262.714 322.007 262.923 321.135 262.969C320.263 263.014 319.39 262.897 318.573 262.623Z" fill="#FFB8B8"/>
<path id="Vector_15" d="M331.029 250.981L322.65 246.065L334.87 217.487L330.331 177.232L334.472 179.509C336.694 180.732 338.611 182.338 340.106 184.232C341.601 186.126 342.644 188.268 343.17 190.527L349.883 219.33C346.946 232.607 342.05 244.288 331.029 250.981Z" fill="black"/>
<path id="Vector_16" opacity="0.2" d="M325.967 205.349L330.157 223.786L326.711 234.569L325.967 205.349Z" fill="black"/>
<path id="Vector_17" d="M293.591 158.915C293.591 158.915 287.079 140.157 306.983 144.091C310.07 144.701 312.737 146.28 314.859 148.346C315.049 148.527 315.282 148.669 315.541 148.762C315.8 148.855 316.079 148.897 316.358 148.885C319.538 148.885 321.502 158.885 315.143 163.283C315.143 163.283 316.44 157.365 314.082 155.349C313.658 155.008 313.303 154.606 313.032 154.159C311.497 151.434 306.337 150.54 302.778 150.772C300.961 150.89 300.802 153.678 298.791 153.289C294.214 152.403 292.753 157.068 293.591 158.915Z" fill="#2F2E41"/>
<path id="Vector_18" d="M313.625 186.757L313.493 187.606L312.68 192.847L311.348 201.429L311.014 203.578C310.989 203.742 310.897 203.893 310.755 204.001C310.613 204.11 310.432 204.17 310.244 204.17H301.361C301.174 204.17 300.992 204.111 300.85 204.002C300.709 203.894 300.616 203.744 300.591 203.58L300.251 201.429L298.897 192.847L298.069 187.603L297.936 186.759C297.921 186.662 297.929 186.563 297.961 186.469C297.993 186.375 298.047 186.289 298.12 186.215C298.193 186.141 298.283 186.082 298.384 186.041C298.485 186.001 298.595 185.98 298.706 185.98H312.854C312.965 185.98 313.075 186.001 313.176 186.041C313.277 186.082 313.367 186.141 313.44 186.214C313.513 186.288 313.567 186.374 313.599 186.468C313.631 186.562 313.64 186.66 313.625 186.757Z" fill="#E6E6E6"/>
<path id="Vector_19" d="M299.644 183.706H311.963C312.065 183.706 312.166 183.724 312.26 183.758C312.355 183.792 312.441 183.843 312.513 183.906C312.585 183.97 312.642 184.046 312.681 184.129C312.72 184.212 312.741 184.301 312.741 184.391V185.295C312.741 185.477 312.659 185.651 312.513 185.779C312.367 185.908 312.169 185.98 311.963 185.98H299.644C299.437 185.98 299.24 185.908 299.094 185.779C298.948 185.651 298.866 185.477 298.866 185.295V184.391C298.866 184.301 298.886 184.212 298.925 184.129C298.964 184.046 299.021 183.97 299.094 183.906C299.166 183.843 299.252 183.792 299.346 183.758C299.44 183.724 299.542 183.706 299.644 183.706Z" fill="#3F3D56"/>
<path id="Vector_20" d="M314.738 187.117C308.799 187.687 302.807 187.687 296.869 187.117C296.767 187.117 296.666 187.099 296.571 187.065C296.477 187.03 296.391 186.98 296.319 186.916C296.247 186.853 296.189 186.777 296.15 186.694C296.111 186.611 296.091 186.522 296.091 186.432V185.527C296.091 185.438 296.111 185.349 296.15 185.265C296.189 185.182 296.247 185.107 296.319 185.043C296.391 184.98 296.477 184.929 296.571 184.895C296.666 184.861 296.767 184.843 296.869 184.843C302.803 185.485 308.804 185.485 314.738 184.843C314.944 184.843 315.142 184.915 315.288 185.043C315.434 185.172 315.516 185.346 315.516 185.527V186.432C315.516 186.614 315.434 186.788 315.288 186.916C315.142 187.045 314.944 187.117 314.738 187.117Z" fill="#3F3D56"/>
<path id="Vector_21" d="M305.443 197.624C307.297 197.624 308.8 196.301 308.8 194.669C308.8 193.036 307.297 191.713 305.443 191.713C303.588 191.713 302.085 193.036 302.085 194.669C302.085 196.301 303.588 197.624 305.443 197.624Z" fill="white"/>
<path id="Vector_22" d="M314.075 200.885C314.177 201.749 314.042 202.621 313.682 203.429C313.321 204.237 312.746 204.957 312.005 205.529C311.263 206.1 310.376 206.507 309.419 206.715C308.461 206.923 307.461 206.926 306.502 206.723L294.501 204.187L294.788 198.552L306.554 196.16C307.405 195.986 308.289 195.975 309.146 196.125C310.003 196.275 310.813 196.584 311.525 197.03C312.236 197.477 312.831 198.052 313.27 198.717C313.71 199.381 313.984 200.121 314.075 200.885Z" fill="#FFB8B8"/>
<path id="Vector_23" d="M297.86 205.195L265.472 205.908C264.303 205.933 263.142 205.734 262.069 205.325C260.996 204.915 260.038 204.304 259.26 203.535C258.483 202.766 257.906 201.857 257.569 200.872C257.231 199.886 257.142 198.847 257.308 197.829C257.567 196.232 258.437 194.761 259.776 193.659L275.025 181.104C277.853 178.776 281.377 177.205 285.184 176.577L290.528 175.695L293.67 196.591L275.515 194.747L296.813 196.898L297.86 205.195Z" fill="black"/>
<path id="Vector_24" d="M255.192 266.511H172.508C171.772 266.511 171.067 266.254 170.547 265.796C170.027 265.339 169.735 264.718 169.735 264.071C199.708 261.005 229.118 261.005 257.965 264.071C257.965 264.718 257.672 265.339 257.152 265.796C256.633 266.254 255.927 266.511 255.192 266.511Z" fill="#2F2E41"/>
<path id="Vector_25" d="M257.965 264.214L169.735 264.071L179.961 248.928L180.01 248.856V215.483C180.009 215.078 180.1 214.677 180.276 214.303C180.452 213.929 180.71 213.589 181.036 213.302C181.361 213.016 181.748 212.789 182.173 212.634C182.598 212.479 183.054 212.399 183.514 212.399H243.696C244.156 212.399 244.612 212.479 245.037 212.634C245.463 212.789 245.849 213.016 246.174 213.302C246.5 213.589 246.758 213.929 246.934 214.303C247.11 214.677 247.201 215.078 247.201 215.483V249.086L257.965 264.214Z" fill="white"/>
<path id="Vector_26" d="M183.434 214.552C183.132 214.552 182.841 214.658 182.627 214.847C182.413 215.035 182.293 215.29 182.293 215.557V245.986C182.293 246.252 182.413 246.507 182.627 246.696C182.841 246.884 183.132 246.99 183.434 246.99H244.265C244.568 246.99 244.858 246.884 245.072 246.696C245.286 246.507 245.407 246.252 245.407 245.986V215.557C245.407 215.29 245.286 215.035 245.072 214.847C244.858 214.658 244.568 214.552 244.265 214.552L183.434 214.552Z" fill="#2F2E41"/>
<path id="Vector_27" d="M183.834 251.009C183.741 251.01 183.649 251.033 183.57 251.078C183.492 251.122 183.429 251.185 183.39 251.26L180.239 257.288C180.204 257.354 180.189 257.426 180.195 257.498C180.201 257.57 180.227 257.64 180.271 257.701C180.316 257.761 180.376 257.812 180.448 257.846C180.52 257.881 180.601 257.899 180.683 257.899H246.943C247.026 257.899 247.108 257.88 247.181 257.844C247.254 257.809 247.315 257.757 247.359 257.695C247.403 257.632 247.428 257.561 247.431 257.488C247.435 257.414 247.417 257.341 247.38 257.276L243.955 251.247C243.915 251.176 243.853 251.115 243.775 251.073C243.698 251.031 243.609 251.009 243.518 251.009L183.834 251.009Z" fill="#1F2833"/>
<path id="Vector_28" d="M213.605 214.05C214.011 214.05 214.339 213.76 214.339 213.404C214.339 213.047 214.011 212.758 213.605 212.758C213.2 212.758 212.871 213.047 212.871 213.404C212.871 213.76 213.2 214.05 213.605 214.05Z" fill="white"/>
<path id="Vector_29" d="M207.092 259.047C206.985 259.047 206.88 259.079 206.795 259.136C206.71 259.194 206.648 259.274 206.62 259.366L205.83 261.949C205.81 262.013 205.808 262.08 205.822 262.145C205.837 262.21 205.868 262.271 205.914 262.323C205.959 262.376 206.018 262.418 206.086 262.448C206.153 262.477 206.227 262.492 206.302 262.492H221.333C221.411 262.492 221.488 262.476 221.557 262.444C221.626 262.413 221.686 262.367 221.731 262.311C221.776 262.255 221.806 262.191 221.817 262.123C221.828 262.055 221.82 261.985 221.795 261.921L220.779 259.337C220.745 259.252 220.683 259.179 220.6 259.127C220.517 259.075 220.418 259.047 220.316 259.047H207.092Z" fill="#2F2E41"/>
<path id="Vector_30" d="M247.201 248.354V248.928H179.961L180.011 248.856V248.354H247.201Z" fill="#2F2E41"/>
<path id="Vector_31" d="M151.471 229.205C151.656 235.279 152.812 241.299 154.905 247.089C154.953 247.224 155.003 247.356 155.053 247.49H167.868C167.854 247.37 167.841 247.236 167.827 247.089C166.973 238.444 162.046 185.827 167.936 176.829C167.421 177.559 150.478 201.736 151.471 229.205Z" fill="#E5E5E5"/>
<path id="Vector_32" d="M152.433 247.089C152.54 247.224 152.652 247.358 152.766 247.49H162.379C162.306 247.376 162.222 247.242 162.124 247.089C160.536 244.567 155.835 237.024 151.471 229.205C146.782 220.803 142.48 212.081 142.843 208.925C142.731 209.637 139.486 231.339 152.433 247.089Z" fill="#E5E5E5"/>
<path id="Vector_33" d="M174.115 64.7009L179.325 61.0335C175.277 60.6405 173.614 62.5833 172.934 64.1209C169.772 62.9654 166.33 64.4798 166.33 64.4798L176.754 67.8104C176.228 66.5742 175.313 65.4956 174.115 64.7009Z" fill="white"/>
<path id="Vector_34" d="M331.035 45.8235L336.245 42.1561C332.198 41.7631 330.535 43.7058 329.854 45.2435C326.692 44.0879 323.25 45.6023 323.25 45.6023L333.674 48.933C333.148 47.6967 332.233 46.6181 331.035 45.8235Z" fill="white"/>
<path id="Vector_35" d="M301.034 94.4917L306.244 90.8243C302.197 90.4313 300.534 92.374 299.853 93.9117C296.691 92.7561 293.249 94.2706 293.249 94.2706L303.673 97.6012C303.147 96.365 302.232 95.2863 301.034 94.4917Z" fill="white"/>
<path id="Vector_36" d="M96.5195 166.599C122.087 162.542 135.189 122.032 125.783 76.1179C116.377 30.2037 88.0256 -3.72812 62.4577 0.32903C36.8898 4.38617 23.788 44.896 33.1939 90.8102C42.5998 136.724 70.9516 170.656 96.5195 166.599Z" fill="#E6E6E6"/>
<path id="Vector_37" d="M71.7843 67.6525C75.922 77.5547 79.604 87.5919 82.8304 97.7639C86.0506 107.926 88.8052 118.191 91.0942 128.559C93.383 138.923 95.1976 149.357 96.538 159.86C97.8718 170.345 98.7288 180.865 99.1089 191.421C99.4867 201.966 99.3824 212.513 98.7959 223.062C98.7237 224.354 98.6442 225.646 98.5574 226.938C98.469 228.261 100.808 228.257 100.896 226.938C101.603 216.356 101.824 205.761 101.561 195.152C101.296 184.605 100.552 174.078 99.3285 163.571C98.1019 153.034 96.4026 142.55 94.2307 132.12C92.0575 121.694 89.4116 111.355 86.293 101.105C83.1764 90.8662 79.5929 80.7494 75.5425 70.7547C75.0483 69.536 74.5472 68.3196 74.0393 67.1053C73.5241 65.8726 71.2633 66.4054 71.7843 67.6524V67.6525Z" fill="black"/>
<path id="Vector_38" d="M87.8974 106.606L98.2576 86.3602L101.178 80.6539C101.325 80.4164 101.364 80.1383 101.286 79.8766C101.208 79.6149 101.019 79.3893 100.758 79.246C100.49 79.1103 100.172 79.073 99.8723 79.1421C99.573 79.2111 99.3166 79.3811 99.1584 79.6151L88.7982 99.8608L85.8782 105.567C85.7309 105.805 85.6922 106.083 85.7702 106.344C85.8482 106.606 86.0369 106.832 86.2976 106.975C86.566 107.111 86.8841 107.148 87.1835 107.079C87.4828 107.01 87.7392 106.84 87.8974 106.606H87.8974Z" fill="#3F3D56"/>
<path id="Vector_39" d="M90.1866 120.439L66.5634 112.644L59.9052 110.447C59.6062 110.377 59.2879 110.413 59.0188 110.547C58.7498 110.682 58.5515 110.904 58.4669 111.166C58.3912 111.429 58.4339 111.707 58.5861 111.943C58.7383 112.179 58.9882 112.354 59.2835 112.432L82.9066 120.227L89.5649 122.424C89.8638 122.494 90.1822 122.458 90.4512 122.324C90.7203 122.189 90.9185 121.967 91.0032 121.705C91.0789 121.442 91.0362 121.164 90.884 120.928C90.7318 120.692 90.4819 120.517 90.1866 120.439V120.439Z" fill="#3F3D56"/>
<path id="Vector_40" d="M71.7909 230.865C71.7909 230.865 100.242 222.633 126.744 230.865H71.7909Z" fill="#E5E5E5"/>
<path id="Vector_41" d="M199.098 226.965C204.735 226.913 210.373 226.824 216.01 226.757C217.89 226.734 219.769 226.715 221.649 226.698C223.268 226.683 223.272 224.467 221.649 224.481C216.011 224.533 210.374 224.622 204.736 224.689C202.857 224.712 200.977 224.731 199.098 224.748C197.478 224.763 197.474 226.98 199.098 226.965Z" fill="white"/>
<path id="Vector_42" d="M199.098 232.136L221.883 231.928L228.364 231.869C229.983 231.854 229.987 229.638 228.364 229.653L205.578 229.861L199.098 229.92C197.478 229.934 197.474 232.151 199.098 232.136Z" fill="white"/>
<path id="Vector_43" d="M199.098 237.307L221.883 237.1L228.364 237.04C229.983 237.026 229.987 234.809 228.364 234.824L205.578 235.032L199.098 235.091C197.478 235.106 197.474 237.322 199.098 237.307Z" fill="white"/>
</g>
<defs>
<clipPath id="clip0">
<rect width="394" height="298" fill="white"/>
</clipPath>
</defs>
</svg>
